Coordinates
version=1
nRows=16
nColumns=40
inDegrees=yes

Units are S.I. units (second, meters, Newtons, ...)
If the header above contains a line with 'inDegrees', this indicates whether rotational values are in degrees (yes) or radians (no).

endheader
time	pelvis_tilt	pelvis_list	pelvis_rotation	pelvis_tx	pelvis_ty	pelvis_tz	hip_flexion_r	hip_adduction_r	hip_rotation_r	knee_angle_r	knee_angle_r_beta	ankle_angle_r	subtalar_angle_r	mtp_angle_r	hip_flexion_l	hip_adduction_l	hip_rotation_l	knee_angle_l	knee_angle_l_beta	ankle_angle_l	subtalar_angle_l	mtp_angle_l	lumbar_extension	lumbar_bending	lumbar_rotation	arm_flex_r	arm_add_r	arm_rot_r	elbow_flex_r	pro_sup_r	wrist_flex_r	wrist_dev_r	arm_flex_l	arm_add_l	arm_rot_l	elbow_flex_l	pro_sup_l	wrist_flex_l	wrist_dev_l
      0.00500000	     -0.50446736	      1.73776321	     -1.53507576	      0.25585837	      0.91515378	     -1.20856911	     -0.23247646	    -19.42126374	    -38.65768934	      3.96997699	      0.06928917	     -9.11265161	      7.68845686	      0.00000000	      0.58026834	    -15.39024374	    -39.43381267	      4.49057733	      0.07837536	     -8.38273884	     12.68556089	      0.00000000	      0.00000000	      0.00000000	      0.00000000	     43.57658249	    -15.90476734	     43.57658249	     75.84495452	     44.66373436	      0.00000000	      0.00000000	     43.57658249	    -15.90476734	     43.57658249	     75.84495452	     44.66373436	      0.00000000	      0.00000000
      0.01000000	     -0.50110158	      1.77979933	     -1.57681052	      0.25573426	      0.91513666	     -1.20853459	     -0.15581728	    -19.51246212	    -38.65695454	      4.09906789	      0.07154223	     -9.04364032	      7.74216506	      0.00000000	      0.56441062	    -15.32771440	    -39.43437001	      4.45903049	      0.07782476	     -8.38068625	     12.62937414	      0.00000000	      0.00000000	      0.00000000	      0.00000000	     43.63102360	    -15.85444071	     43.63102360	     75.77197742	     44.71489715	      0.00000000	      0.00000000	     43.63102360	    -15.85444071	     43.63102360	     75.77197742	     44.71489715	      0.00000000	      0.00000000
      0.01500000	     -0.48665169	      1.80752378	     -1.57948227	      0.25564251	      0.91512136	     -1.20854981	     -0.12317366	    -19.57953197	    -38.67576929	      4.19995894	      0.07330311	     -8.98348182	      7.73232481	      0.00000000	      0.56098757	    -15.29855608	    -39.43742998	      4.46983100	      0.07801327	     -8.40028926	     12.60790116	      0.00000000	      0.00000000	      0.00000000	      0.00000000	     43.66831208	    -15.82099063	     43.66831208	     75.72574767	     44.74412414	      0.00000000	      0.00000000	     43.66831208	    -15.82099063	     43.66831208	     75.72574767	     44.74412414	      0.00000000	      0.00000000
      0.02000000	     -0.47122518	      1.90844929	     -1.64161375	      0.25550278	      0.91509342	     -1.20846970	     -0.02540410	    -19.76436440	    -38.69733211	      4.39845239	      0.07676748	     -8.86737796	      7.82715756	      0.00000000	      0.50970975	    -15.15522506	    -39.43506255	      4.38738469	      0.07657431	     -8.48092474	     12.49507310	      0.00000000	      0.00000000	      0.00000000	      0.00000000	     43.83862579	    -15.68132337	     43.83862579	     75.56142552	     44.81996837	      0.00000000	      0.00000000	     43.83862579	    -15.68132337	     43.83862579	     75.56142552	     44.81996837	      0.00000000	      0.00000000
      0.02500000	     -0.51349098	      1.71674584	     -1.52572452	      0.25534711	      0.91506119	     -1.20864887	     -0.02730503	    -19.52647868	    -38.74571400	      4.35683830	      0.07604117	     -8.90033894	      7.71270470	      0.00000000	      0.71692275	    -15.48117498	    -39.45254908	      4.72339128	      0.08243873	     -8.22424284	     12.71153368	      0.00000000	      0.00000000	      0.00000000	      0.00000000	     43.85811523	    -15.66523891	     43.85811523	     75.54142063	     44.83166538	      0.00000000	      0.00000000	     43.85811523	    -15.66523891	     43.85811523	     75.54142063	     44.83166538	      0.00000000	      0.00000000
      0.03000000	     -0.45084494	      1.77622008	     -1.57934508	      0.25520055	      0.91514123	     -1.20859981	     -0.02885091	    -19.61666824	    -38.68224687	      4.42091774	      0.07715957	     -8.93700979	      7.65058292	      0.00000000	      0.59973124	    -15.36347018	    -39.43382386	      4.58622343	      0.08004470	     -8.34498670	     12.55473554	      0.00000000	      0.00000000	      0.00000000	      0.00000000	     43.89960956	    -15.63243775	     43.89960956	     75.50405936	     44.84941355	      0.00000000	      0.00000000	     43.89960956	    -15.63243775	     43.89960956	     75.50405936	     44.84941355	      0.00000000	      0.00000000
      0.03500000	     -0.45537606	      1.74588542	     -1.53510705	      0.25506232	      0.91513133	     -1.20871269	     -0.02023700	    -19.58327856	    -38.65612782	      4.43064183	      0.07732929	     -8.98248604	      7.51362014	      0.00000000	      0.67271782	    -15.43185450	    -39.43671257	      4.70277823	      0.08207896	     -8.26202149	     12.62049995	      0.00000000	      0.00000000	      0.00000000	      0.00000000	     43.92297505	    -15.61392734	     43.92297505	     75.48288865	     44.85970178	      0.00000000	      0.00000000	     43.92297505	    -15.61392734	     43.92297505	     75.48288865	     44.85970178	      0.00000000	      0.00000000
      0.04000000	     -0.44725769	      1.70677455	     -1.58392886	      0.25481600	      0.91512460	     -1.20860484	      0.08651808	    -19.59391504	    -38.65554127	      4.61455433	      0.08053917	     -8.88914214	      7.51017947	      0.00000000	      0.67338630	    -15.48509461	    -39.43608290	      4.72408403	      0.08245082	     -8.27825454	     12.55017969	      0.00000000	      0.00000000	      0.00000000	      0.00000000	     43.95171285	    -15.59120696	     43.95171285	     75.45663061	     44.87271948	      0.00000000	      0.00000000	     43.95171285	    -15.59120696	     43.95171285	     75.45663061	     44.87271948	      0.00000000	      0.00000000
      0.04500000	     -0.41697087	      1.77211321	     -1.54095067	      0.25467468	      0.91515249	     -1.20876649	      0.07164244	    -19.68728951	    -38.64309809	      4.66236520	      0.08137362	     -8.89028993	      7.40691298	      0.00000000	      0.68626537	    -15.41389564	    -39.43587913	      4.76324464	      0.08313430	     -8.25870188	     12.55911318	      0.00000000	      0.00000000	      0.00000000	      0.00000000	     43.97343017	    -15.57364672	     43.97343017	     75.43535452	     44.88447457	      0.00000000	      0.00000000	     43.97343017	    -15.57364672	     43.97343017	     75.43535452	     44.88447457	      0.00000000	      0.00000000
      0.05000000	     -0.41632852	      1.73681438	     -1.56804097	      0.25444307	      0.91513824	     -1.20871514	      0.17487895	    -19.70390890	    -38.65758458	      4.83888548	      0.08445448	     -8.82192035	      7.42389250	      0.00000000	      0.71054528	    -15.46832426	    -39.44053663	      4.81123751	      0.08397194	     -8.22001824	     12.54216492	      0.00000000	      0.00000000	      0.00000000	      0.00000000	     44.00472223	    -15.55014121	     44.00472223	     75.41077150	     44.89438300	      0.00000000	      0.00000000	     44.00472223	    -15.55014121	     44.00472223	     75.41077150	     44.89438300	      0.00000000	      0.00000000
      0.05500000	     -0.59034730	      1.53619925	     -1.35053989	      0.25422666	      0.91484193	     -1.20905945	      0.34949342	    -19.52666387	    -38.83338462	      5.01305091	      0.08749424	     -8.67567159	      7.41972185	      0.00000000	      1.19311526	    -15.88307268	    -39.47986701	      5.39321829	      0.09412942	     -7.73852927	     12.90834370	      0.00000000	      0.00000000	      0.00000000	      0.00000000	     44.03522705	    -15.52743621	     44.03522705	     75.38729842	     44.90342122	      0.00000000	      0.00000000	     44.03522705	    -15.52743621	     44.03522705	     75.38729842	     44.90342122	      0.00000000	      0.00000000
      0.06000000	     -0.39580867	      1.82026045	     -1.54943623	      0.25403183	      0.91510293	     -1.20883756	      0.30560527	    -19.89797498	    -38.66767209	      5.13667331	      0.08965186	     -8.70575508	      7.33075749	      0.00000000	      0.77302126	    -15.39298331	    -39.43944188	      4.90613243	      0.08562816	     -8.19752135	     12.46904041	      0.00000000	      0.00000000	      0.00000000	      0.00000000	     44.10718880	    -15.47539623	     44.10718880	     75.33558191	     44.92222786	      0.00000000	      0.00000000	     44.10718880	    -15.47539623	     44.10718880	     75.33558191	     44.92222786	      0.00000000	      0.00000000
      0.06500000	     -0.39099342	      1.78698963	     -1.52752476	      0.25378127	      0.91510795	     -1.20887993	      0.34983531	    -19.88145942	    -38.63976997	      5.21601943	      0.09103671	     -8.70311797	      7.21306123	      0.00000000	      0.83451215	    -15.46273842	    -39.43937947	      5.01128690	      0.08746346	     -8.12219096	     12.46573278	      0.00000000	      0.00000000	      0.00000000	      0.00000000	     44.23279364	    -15.38533750	     44.23279364	     75.24714499	     44.95364206	      0.00000000	      0.00000000	     44.23279364	    -15.38533750	     44.23279364	     75.24714499	     44.95364206	      0.00000000	      0.00000000
      0.07000000	     -0.40015267	      1.73626758	     -1.46043043	      0.25357689	      0.91509733	     -1.20901173	      0.37662316	    -19.83328388	    -38.62214178	      5.25792019	      0.09176802	     -8.74078814	      7.02701180	      0.00000000	      0.94134327	    -15.56406902	    -39.43403080	      5.16043351	      0.09006656	     -8.08511950	     12.49034872	      0.00000000	      0.00000000	      0.00000000	      0.00000000	     44.26791248	    -15.36129396	     44.26791248	     75.22503366	     44.96048758	      0.00000000	      0.00000000	     44.26791248	    -15.36129396	     44.26791248	     75.22503366	     44.96048758	      0.00000000	      0.00000000
      0.07500000	     -0.38860997	      1.77690884	     -1.49477826	      0.25330399	      0.91506282	     -1.20897780	      0.51744863	    -19.97503865	    -38.64476717	      5.54360606	      0.09675418	     -8.62107224	      7.05788544	      0.00000000	      0.95271791	    -15.52511389	    -39.44084163	      5.19458594	      0.09066263	     -8.04985035	     12.43975931	      0.00000000	      0.00000000	      0.00000000	      0.00000000	     44.37065508	    -15.29270718	     44.37065508	     75.16472301	     44.97748670	      0.00000000	      0.00000000	     44.37065508	    -15.29270718	     44.37065508	     75.16472301	     44.97748670	      0.00000000	      0.00000000
      0.08000000	     -0.40357218	      1.80467838	     -1.47794455	      0.25309125	      0.91500392	     -1.20902953	      0.61305309	    -20.05822663	    -38.63669452	      5.69939230	      0.09947316	     -8.58332358	      7.00369637	      0.00000000	      1.02763395	    -15.51608973	    -39.44267261	      5.27514165	      0.09206859	     -8.02709958	     12.40158309	      0.00000000	      0.00000000	      0.00000000	      0.00000000	     44.42807730	    -15.25646801	     44.42807730	     75.13545277	     44.98436324	      0.00000000	      0.00000000	     44.42807730	    -15.25646801	     44.42807730	     75.13545277	     44.98436324	      0.00000000	      0.00000000
